<svg width="14" height="12" viewBox="0 0 14 12" fill="none" xmlns="http://www.w3.org/2000/svg">
<g clip-path="url(#clip0_650_28)">
<path d="M12.2134 5.37502C12.2134 7.8527 10.1142 10.1697 7.29335 10.7322C4.47255 10.1697 2.37335 7.8527 2.37335 5.37502V2.69645L7.29335 0.910736L12.2134 2.69645V5.37502ZM7.29335 9.83931C9.34335 9.39288 11.12 7.40181 11.12 5.47324V3.27681L7.29335 1.88395L3.46669 3.27681V5.47324C3.46669 7.40181 5.24335 9.39288 7.29335 9.83931ZM8.96069 7.60717L7.27695 6.78127L5.59869 7.60717L6.04149 6.04467L4.56002 5.00002L6.51709 4.86163L7.27695 3.38842L8.04229 4.85717L9.99935 4.99556L8.51242 6.04467L8.96069 7.60717" fill="black"/>
</g>
<defs>
<clipPath id="clip0_650_28">
<rect width="13.12" height="10.7143" fill="white" transform="translate(0.733337 0.464294)"/>
</clipPath>
</defs>
</svg>
