<svg width="9" height="5" viewBox="0 0 9 5" fill="none" xmlns="http://www.w3.org/2000/svg">
<path d="M8.85294 0H0.205881C0.157351 0 0.117645 0.0255682 0.117645 0.0568182V0.511364C0.117645 0.542614 0.157351 0.568182 0.205881 0.568182H8.85294C8.90147 0.568182 8.94117 0.542614 8.94117 0.511364V0.0568182C8.94117 0.0255682 8.90147 0 8.85294 0ZM8.85294 4.43182H0.205881C0.157351 4.43182 0.117645 4.45739 0.117645 4.48864V4.94318C0.117645 4.97443 0.157351 5 0.205881 5H8.85294C8.90147 5 8.94117 4.97443 8.94117 4.94318V4.48864C8.94117 4.45739 8.90147 4.43182 8.85294 4.43182ZM8.85294 2.21591H0.205881C0.157351 2.21591 0.117645 2.24148 0.117645 2.27273V2.72727C0.117645 2.75852 0.157351 2.78409 0.205881 2.78409H8.85294C8.90147 2.78409 8.94117 2.75852 8.94117 2.72727V2.27273C8.94117 2.24148 8.90147 2.21591 8.85294 2.21591Z" fill="black"/>
</svg>
