<svg width="14" height="12" viewBox="0 0 14 12" fill="none" xmlns="http://www.w3.org/2000/svg">
<g clip-path="url(#clip0_650_30)">
<path d="M4.56 3.77679V2.88393C4.56 2.76553 4.61759 2.65198 4.72011 2.56826C4.82263 2.48453 4.96168 2.4375 5.10666 2.4375H12.2133C12.3583 2.4375 12.4974 2.48453 12.5999 2.56826C12.7024 2.65198 12.76 2.76553 12.76 2.88393V6.90179C12.76 7.02019 12.7024 7.13374 12.5999 7.21746C12.4974 7.30118 12.3583 7.34822 12.2133 7.34822H11.6667" stroke="black" stroke-linecap="round" stroke-linejoin="round"/>
<path d="M9.47999 5.11606H2.37333C2.07141 5.11606 1.82666 5.31593 1.82666 5.56249V9.58035C1.82666 9.8269 2.07141 10.0268 2.37333 10.0268H9.47999C9.78191 10.0268 10.0267 9.8269 10.0267 9.58035V5.56249C10.0267 5.31593 9.78191 5.11606 9.47999 5.11606Z" stroke="black" stroke-linecap="round" stroke-linejoin="round"/>
<path d="M1.82666 7.125H10.0267M10.0267 6.00893V8.6875M1.82666 6.00893V8.6875M3.73999 8.46428H5.92666M7.56666 8.46428H8.11333" stroke="black" stroke-linecap="round" stroke-linejoin="round"/>
</g>
<defs>
<clipPath id="clip0_650_30">
<rect width="13.12" height="10.7143" fill="white" transform="translate(0.733337 0.875)"/>
</clipPath>
</defs>
</svg>
