<svg width="14" height="12" viewBox="0 0 14 12" fill="none" xmlns="http://www.w3.org/2000/svg">
<path fill-rule="evenodd" clip-rule="evenodd" d="M4.78112 8.42721C6.65208 8.204 7.9403 8.2232 9.81373 8.43503C9.9494 8.45109 10.0734 8.5067 10.1628 8.59159C10.2521 8.67647 10.3009 8.78491 10.3 8.89686C10.3 9.004 10.2549 9.10802 10.1734 9.18927C10.0315 9.33093 9.88603 9.47024 9.7372 9.60712H10.4591C10.5044 9.56293 10.5501 9.51784 10.5963 9.47208C10.7584 9.30971 10.8469 9.10659 10.8467 8.89708C10.8467 8.44507 10.4427 8.05556 9.88862 7.99306C7.97092 7.77632 6.63049 7.75556 4.70212 7.9857C4.14234 8.05244 3.73999 8.44797 3.73999 8.90311C3.73999 9.10512 3.82062 9.30489 3.97342 9.46672C4.01852 9.51449 4.06307 9.56137 4.10735 9.60735H4.81173C4.67327 9.47197 4.53821 9.33429 4.40665 9.1944C4.32847 9.11066 4.28629 9.00819 4.28666 8.90288C4.28666 8.66248 4.49822 8.46092 4.78112 8.42721ZM7.29332 6.25891C7.50869 6.25891 7.72195 6.22427 7.92092 6.15696C8.1199 6.08966 8.30069 5.99101 8.45298 5.86664C8.60527 5.74228 8.72607 5.59464 8.80849 5.43215C8.8909 5.26966 8.93332 5.0955 8.93332 4.91963C8.93332 4.74375 8.8909 4.56959 8.80849 4.4071C8.72607 4.24461 8.60527 4.09697 8.45298 3.97261C8.30069 3.84824 8.1199 3.74959 7.92092 3.68229C7.72195 3.61498 7.50869 3.58034 7.29332 3.58034C6.85837 3.58034 6.44123 3.72144 6.13367 3.97261C5.82611 4.22377 5.65332 4.56442 5.65332 4.91963C5.65332 5.27483 5.82611 5.61548 6.13367 5.86664C6.44123 6.11781 6.85837 6.25891 7.29332 6.25891V6.25891ZM7.29332 6.70534C7.87326 6.70534 8.42945 6.5172 8.83953 6.18232C9.24961 5.84743 9.47999 5.39323 9.47999 4.91963C9.47999 4.44602 9.24961 3.99182 8.83953 3.65693C8.42945 3.32205 7.87326 3.13391 7.29332 3.13391C6.71338 3.13391 6.1572 3.32205 5.74712 3.65693C5.33704 3.99182 5.10666 4.44602 5.10666 4.91963C5.10666 5.39323 5.33704 5.84743 5.74712 6.18232C6.1572 6.5172 6.71338 6.70534 7.29332 6.70534V6.70534Z" fill="black"/>
<path fill-rule="evenodd" clip-rule="evenodd" d="M7.29333 10.0536C10.0105 10.0536 12.2133 8.25467 12.2133 6.0357C12.2133 3.81672 10.0105 2.01784 7.29333 2.01784C4.57612 2.01784 2.37333 3.81672 2.37333 6.0357C2.37333 8.25467 4.57612 10.0536 7.29333 10.0536ZM7.29333 10.5C10.3126 10.5 12.76 8.50132 12.76 6.0357C12.76 3.57007 10.3126 1.57141 7.29333 1.57141C4.27409 1.57141 1.82666 3.57007 1.82666 6.0357C1.82666 8.50132 4.27409 10.5 7.29333 10.5Z" fill="black"/>
</svg>
