<svg width="14" height="11" viewBox="0 0 14 11" fill="none" xmlns="http://www.w3.org/2000/svg">
<g clip-path="url(#clip0_650_37)">
<path d="M3.19334 0.0535583H12.2133V10.7678H3.19334C2.96699 10.7678 2.75558 10.733 2.55913 10.6632C2.36267 10.5935 2.18756 10.4975 2.03381 10.3755C1.88006 10.2534 1.76262 10.1122 1.68147 9.95172C1.60032 9.79128 1.55762 9.6169 1.55334 9.42856V1.39284C1.55334 1.20799 1.59605 1.03535 1.68147 0.874917C1.76689 0.714482 1.88433 0.571485 2.03381 0.445927C2.18329 0.320369 2.35626 0.224457 2.55272 0.15819C2.74918 0.0919233 2.96272 0.0570461 3.19334 0.0535583ZM11.3933 10.0982V8.75892H3.19334C3.07803 8.75892 2.97126 8.77635 2.87303 8.81123C2.7748 8.84611 2.68939 8.89319 2.61678 8.95249C2.54418 9.01178 2.48439 9.08327 2.43741 9.16698C2.39043 9.25069 2.36907 9.33788 2.37334 9.42856C2.37334 9.52273 2.3947 9.60992 2.43741 9.69014C2.48012 9.77036 2.53777 9.84011 2.61038 9.8994C2.68298 9.95869 2.77053 10.0075 2.87303 10.0459C2.97553 10.0843 3.0823 10.1017 3.19334 10.0982H11.3933ZM11.3933 8.08927V0.723201H3.19334C3.07803 0.723201 2.97126 0.74064 2.87303 0.775517C2.7748 0.810394 2.68939 0.857479 2.61678 0.91677C2.54418 0.976061 2.48439 1.04756 2.43741 1.13126C2.39043 1.21497 2.36907 1.30216 2.37334 1.39284V8.26715C2.62959 8.14856 2.90293 8.08927 3.19334 8.08927H11.3933ZM6.47334 6.74999V3.40177H7.29334V6.74999H6.47334ZM6.47334 2.73213V2.06249H7.29334V2.73213H6.47334Z" fill="black"/>
</g>
<defs>
<clipPath id="clip0_650_37">
<rect width="13.12" height="10.7143" fill="white" transform="translate(0.733337 0.0535583)"/>
</clipPath>
</defs>
</svg>
