<svg width="14" height="11" viewBox="0 0 14 11" fill="none" xmlns="http://www.w3.org/2000/svg">
<g clip-path="url(#clip0_650_35)">
<mask id="path-1-inside-1_650_35" fill="white">
<path d="M2.91999 0.982147C2.63002 0.982147 2.35193 1.07622 2.14689 1.24366C1.94185 1.4111 1.82666 1.6382 1.82666 1.875V7.23215C1.82666 7.46895 1.94185 7.69605 2.14689 7.86349C2.35193 8.03094 2.63002 8.125 2.91999 8.125H5.10666V9.46429C5.10666 9.58269 5.16425 9.69624 5.26677 9.77996C5.36929 9.86369 5.50834 9.91072 5.65333 9.91072H5.92666C6.06333 9.91072 6.19999 9.86608 6.30933 9.78125L8.33199 8.125H11.6667C11.9566 8.125 12.2347 8.03094 12.4398 7.86349C12.6448 7.69605 12.76 7.46895 12.76 7.23215V1.875C12.76 1.6382 12.6448 1.4111 12.4398 1.24366C12.2347 1.07622 11.9566 0.982147 11.6667 0.982147H2.91999ZM2.91999 1.875H11.6667V7.23215H7.88373L6.19999 8.60715V7.23215H2.91999V1.875ZM7.39719 2.54465C6.91066 2.54465 6.52253 2.625 6.22733 2.78572C5.92666 2.94643 5.77359 3.21429 5.80093 3.52233H6.87786C6.87786 3.39733 6.93253 3.30358 7.01999 3.24108C7.12933 3.17858 7.24959 3.14733 7.39719 3.14733C7.56666 3.14733 7.71426 3.18304 7.81266 3.2634C7.91106 3.33929 7.96026 3.4375 7.96026 3.57143C7.96026 3.69643 7.91653 3.80804 7.83999 3.90179C7.74706 4 7.63226 4.08036 7.49013 4.14286C7.20586 4.28572 7.01999 4.41072 6.90519 4.51786C6.80133 4.625 6.74666 4.77679 6.74666 5H7.83999C7.83999 4.875 7.86733 4.77679 7.91653 4.69643C7.96573 4.62054 8.05866 4.55358 8.20079 4.48661C8.45226 4.39286 8.65999 4.26786 8.81853 4.10715C8.97706 3.94197 9.05906 3.76786 9.05906 3.57143C9.05906 3.25893 8.91146 3.00893 8.61626 2.82143C8.32106 2.6384 7.91106 2.54465 7.39719 2.54465M6.74666 5.44643V6.33929H7.83999V5.44643H6.74666Z"/>
</mask>
<path d="M2.91999 0.982147C2.63002 0.982147 2.35193 1.07622 2.14689 1.24366C1.94185 1.4111 1.82666 1.6382 1.82666 1.875V7.23215C1.82666 7.46895 1.94185 7.69605 2.14689 7.86349C2.35193 8.03094 2.63002 8.125 2.91999 8.125H5.10666V9.46429C5.10666 9.58269 5.16425 9.69624 5.26677 9.77996C5.36929 9.86369 5.50834 9.91072 5.65333 9.91072H5.92666C6.06333 9.91072 6.19999 9.86608 6.30933 9.78125L8.33199 8.125H11.6667C11.9566 8.125 12.2347 8.03094 12.4398 7.86349C12.6448 7.69605 12.76 7.46895 12.76 7.23215V1.875C12.76 1.6382 12.6448 1.4111 12.4398 1.24366C12.2347 1.07622 11.9566 0.982147 11.6667 0.982147H2.91999ZM2.91999 1.875H11.6667V7.23215H7.88373L6.19999 8.60715V7.23215H2.91999V1.875ZM7.39719 2.54465C6.91066 2.54465 6.52253 2.625 6.22733 2.78572C5.92666 2.94643 5.77359 3.21429 5.80093 3.52233H6.87786C6.87786 3.39733 6.93253 3.30358 7.01999 3.24108C7.12933 3.17858 7.24959 3.14733 7.39719 3.14733C7.56666 3.14733 7.71426 3.18304 7.81266 3.2634C7.91106 3.33929 7.96026 3.4375 7.96026 3.57143C7.96026 3.69643 7.91653 3.80804 7.83999 3.90179C7.74706 4 7.63226 4.08036 7.49013 4.14286C7.20586 4.28572 7.01999 4.41072 6.90519 4.51786C6.80133 4.625 6.74666 4.77679 6.74666 5H7.83999C7.83999 4.875 7.86733 4.77679 7.91653 4.69643C7.96573 4.62054 8.05866 4.55358 8.20079 4.48661C8.45226 4.39286 8.65999 4.26786 8.81853 4.10715C8.97706 3.94197 9.05906 3.76786 9.05906 3.57143C9.05906 3.25893 8.91146 3.00893 8.61626 2.82143C8.32106 2.6384 7.91106 2.54465 7.39719 2.54465M6.74666 5.44643V6.33929H7.83999V5.44643H6.74666Z" fill="black"/>
<path d="M2.91999 0.982147L2.91999 0.482147L2.91999 0.982147ZM1.82666 1.875H1.32666H1.82666ZM1.82666 7.23215L1.32666 7.23215L1.82666 7.23215ZM5.10666 8.125H5.60666V7.625H5.10666V8.125ZM5.10666 9.46429H5.60666H5.10666ZM6.30933 9.78125L6.61592 10.1764L6.6261 10.1681L6.30933 9.78125ZM8.33199 8.125V7.625H8.1534L8.01522 7.73815L8.33199 8.125ZM2.91999 1.875V1.375H2.41999V1.875H2.91999ZM11.6667 1.875H12.1667V1.375H11.6667V1.875ZM11.6667 7.23215V7.73215H12.1667V7.23215H11.6667ZM7.88373 7.23215V6.73215H7.7055L7.56747 6.84488L7.88373 7.23215ZM6.19999 8.60715H5.69999V9.66101L6.51625 8.99442L6.19999 8.60715ZM6.19999 7.23215H6.69999V6.73215H6.19999V7.23215ZM2.91999 7.23215H2.41999V7.73215H2.91999V7.23215ZM6.22733 2.78572L6.46304 3.22669L6.4664 3.22486L6.22733 2.78572ZM5.80093 3.52233L5.30288 3.56652L5.34333 4.02233H5.80093V3.52233ZM6.87786 3.52233V4.02233H7.37786V3.52233H6.87786ZM7.01999 3.24108L6.77185 2.807L6.74989 2.81955L6.7293 2.83426L7.01999 3.24108ZM7.81266 3.2634L7.49628 3.65082L7.5073 3.65932L7.81266 3.2634ZM7.83999 3.90179L8.20318 4.24544L8.21575 4.23216L8.22732 4.21799L7.83999 3.90179ZM7.49013 4.14286L7.28886 3.68516L7.27709 3.69033L7.26561 3.6961L7.49013 4.14286ZM6.90519 4.51786L6.56404 4.15233L6.5549 4.16086L6.54619 4.16984L6.90519 4.51786ZM6.74666 5H6.24666V5.5H6.74666V5ZM7.83999 5V5.5H8.33999V5H7.83999ZM7.91653 4.69643L7.49684 4.42436L7.4901 4.43535L7.91653 4.69643ZM8.20079 4.48661L8.02613 4.01811L8.00657 4.0254L7.98769 4.0343L8.20079 4.48661ZM8.81853 4.10715L9.17452 4.45831L9.17926 4.45337L8.81853 4.10715ZM8.61626 2.82143L8.88435 2.39935L8.87974 2.39649L8.61626 2.82143ZM6.74666 5.44643V4.94643H6.24666V5.44643H6.74666ZM6.74666 6.33929H6.24666V6.83929H6.74666V6.33929ZM7.83999 6.33929V6.83929H8.33999V6.33929H7.83999ZM7.83999 5.44643H8.33999V4.94643H7.83999V5.44643ZM2.91999 0.482147C2.5265 0.482147 2.13363 0.608942 1.83063 0.856387L2.46315 1.63093C2.57022 1.54349 2.73354 1.48215 2.91999 1.48215L2.91999 0.482147ZM1.83063 0.856387C1.52482 1.10612 1.32666 1.46913 1.32666 1.875L2.32666 1.875C2.32666 1.80728 2.35888 1.71608 2.46315 1.63093L1.83063 0.856387ZM1.32666 1.875V7.23215H2.32666V1.875H1.32666ZM1.32666 7.23215C1.32666 7.63802 1.52482 8.00103 1.83063 8.25076L2.46315 7.47622C2.35888 7.39107 2.32666 7.29988 2.32666 7.23215L1.32666 7.23215ZM1.83063 8.25076C2.13363 8.49821 2.5265 8.625 2.91999 8.625V7.625C2.73354 7.625 2.57023 7.56366 2.46315 7.47622L1.83063 8.25076ZM2.91999 8.625H5.10666V7.625H2.91999V8.625ZM4.60666 8.125V9.46429H5.60666V8.125H4.60666ZM4.60666 9.46429C4.60666 9.75176 4.74722 10.0012 4.95051 10.1672L5.58304 9.39269C5.58197 9.39182 5.58775 9.39625 5.59419 9.40895C5.60085 9.42209 5.60666 9.44127 5.60666 9.46429L4.60666 9.46429ZM4.95051 10.1672C5.151 10.331 5.40482 10.4107 5.65333 10.4107V9.41072C5.61186 9.41072 5.58759 9.39641 5.58304 9.39269L4.95051 10.1672ZM5.65333 10.4107H5.92666V9.41072H5.65333V10.4107ZM5.92666 10.4107C6.16973 10.4107 6.41525 10.3319 6.61581 10.1763L6.00284 9.3862C5.98474 9.40025 5.95692 9.41072 5.92666 9.41072V10.4107ZM6.6261 10.1681L8.64876 8.51186L8.01522 7.73815L5.99255 9.3944L6.6261 10.1681ZM8.33199 8.625H11.6667V7.625H8.33199V8.625ZM11.6667 8.625C12.0601 8.625 12.453 8.49821 12.756 8.25076L12.1235 7.47622C12.0164 7.56366 11.8531 7.625 11.6667 7.625V8.625ZM12.756 8.25076C13.0618 8.00103 13.26 7.63802 13.26 7.23215H12.26C12.26 7.29988 12.2278 7.39107 12.1235 7.47622L12.756 8.25076ZM13.26 7.23215V1.875H12.26V7.23215H13.26ZM13.26 1.875C13.26 1.46913 13.0618 1.10612 12.756 0.856387L12.1235 1.63093C12.2278 1.71608 12.26 1.80728 12.26 1.875H13.26ZM12.756 0.856387C12.453 0.608942 12.0601 0.482147 11.6667 0.482147V1.48215C11.8531 1.48215 12.0164 1.54349 12.1235 1.63093L12.756 0.856387ZM11.6667 0.482147H2.91999V1.48215H11.6667V0.482147ZM2.91999 2.375H11.6667V1.375H2.91999V2.375ZM11.1667 1.875V7.23215H12.1667V1.875H11.1667ZM11.6667 6.73215H7.88373V7.73215H11.6667V6.73215ZM7.56747 6.84488L5.88373 8.21988L6.51625 8.99442L8.19999 7.61942L7.56747 6.84488ZM6.69999 8.60715V7.23215H5.69999V8.60715H6.69999ZM6.19999 6.73215H2.91999V7.73215H6.19999V6.73215ZM3.41999 7.23215V1.875H2.41999V7.23215H3.41999ZM7.39719 2.04465C6.86148 2.04465 6.38199 2.13222 5.98825 2.34658L6.4664 3.22486C6.66306 3.11779 6.95984 3.04465 7.39719 3.04465V2.04465ZM5.99162 2.34476C5.53398 2.58938 5.25593 3.03733 5.30288 3.56652L6.29897 3.47813C6.29126 3.39125 6.31934 3.30348 6.46303 3.22668L5.99162 2.34476ZM5.80093 4.02233H6.87786V3.02233H5.80093V4.02233ZM7.37786 3.52233C7.37786 3.5348 7.37456 3.56071 7.35886 3.59061C7.34351 3.61987 7.32393 3.63842 7.31068 3.64789L6.7293 2.83426C6.51546 2.98706 6.37786 3.22985 6.37786 3.52233H7.37786ZM7.26813 3.67516C7.29403 3.66035 7.3271 3.64733 7.39719 3.64733V2.64733C7.17208 2.64733 6.96462 2.6968 6.77185 2.807L7.26813 3.67516ZM7.39719 3.64733C7.44846 3.64733 7.48254 3.6529 7.50144 3.65799C7.52045 3.66312 7.51379 3.66487 7.4964 3.65067L8.12892 2.87613C7.90274 2.69142 7.6198 2.64733 7.39719 2.64733V3.64733ZM7.5073 3.65932C7.50413 3.65688 7.48717 3.6421 7.47338 3.61364C7.45986 3.58573 7.46026 3.56706 7.46026 3.57143H8.46026C8.46026 3.28683 8.34255 3.04065 8.11802 2.86748L7.5073 3.65932ZM7.46026 3.57143C7.46026 3.5734 7.4601 3.57425 7.46009 3.57427C7.46009 3.5743 7.46011 3.57426 7.46006 3.57438C7.46 3.57454 7.45966 3.57544 7.45866 3.57716C7.45765 3.5789 7.4558 3.58175 7.45267 3.5856L8.22732 4.21799C8.3708 4.04223 8.46026 3.8207 8.46026 3.57143H7.46026ZM7.47681 3.55814C7.43359 3.60381 7.37535 3.64713 7.28886 3.68516L7.69139 4.60057C7.88917 4.5136 8.06053 4.3962 8.20318 4.24544L7.47681 3.55814ZM7.26561 3.6961C6.96082 3.84927 6.72797 3.99933 6.56404 4.15233L7.24635 4.8834C7.31201 4.82211 7.4509 4.72216 7.71464 4.58962L7.26561 3.6961ZM6.54619 4.16984C6.32388 4.39916 6.24666 4.69361 6.24666 5H7.24666C7.24666 4.92788 7.25565 4.89037 7.26089 4.87479C7.26217 4.87101 7.26322 4.86849 7.2639 4.86702C7.26457 4.86556 7.26496 4.8649 7.265 4.86484C7.26503 4.86478 7.2649 4.86501 7.26462 4.86537C7.26434 4.86573 7.26416 4.86592 7.26419 4.86588L6.54619 4.16984ZM6.74666 5.5H7.83999V4.5H6.74666V5.5ZM8.33999 5C8.33999 4.974 8.34282 4.96078 8.3439 4.95662C8.34479 4.95316 8.3448 4.95448 8.34295 4.95752L7.4901 4.43535C7.38524 4.60663 7.33999 4.79848 7.33999 5H8.33999ZM8.33608 4.96842C8.31916 4.99452 8.30678 5.0007 8.31961 4.99129C8.33271 4.98168 8.36108 4.96381 8.41389 4.93893L7.98769 4.0343C7.8224 4.11217 7.62406 4.2284 7.49698 4.42445L8.33608 4.96842ZM8.37546 4.95511C8.67759 4.84247 8.95307 4.68274 9.17449 4.45828L8.46257 3.75602C8.36692 3.85298 8.22693 3.94325 8.02613 4.01811L8.37546 4.95511ZM9.17926 4.45337C9.40404 4.21917 9.55906 3.92683 9.55906 3.57143H8.55906C8.55906 3.60889 8.55008 3.66477 8.45779 3.76092L9.17926 4.45337ZM9.55906 3.57143C9.55906 3.06501 9.30359 2.66567 8.88434 2.39937L8.34818 3.24349C8.51933 3.3522 8.55906 3.45285 8.55906 3.57143H9.55906ZM8.87974 2.39649C8.4767 2.14659 7.96331 2.04465 7.39719 2.04465V3.04465C7.85881 3.04465 8.16542 3.13021 8.35278 3.24638L8.87974 2.39649ZM6.24666 5.44643V6.33929H7.24666V5.44643H6.24666ZM6.74666 6.83929H7.83999V5.83929H6.74666V6.83929ZM8.33999 6.33929V5.44643H7.33999V6.33929H8.33999ZM7.83999 4.94643H6.74666V5.94643H7.83999V4.94643Z" fill="black" mask="url(#path-1-inside-1_650_35)"/>
</g>
<defs>
<clipPath id="clip0_650_35">
<rect width="13.12" height="10.7143" fill="white" transform="translate(0.733337 0.0892944)"/>
</clipPath>
</defs>
</svg>
